:version 1.10
:name ASF
:units
  mass 1
  length 1
  angle deg
:documentation
  ASF file generated by Kaydara
:root
  axis xyz
  order  tx ty tz rx ry rz
  position 0 0 0
  orientation 0 0 0
:bonedata
  begin
    id 1
    name RightUpLegDummy
    direction -0.718183 -0.695806 0.00816078
    length 4.904
    axis 0 0 0 xyz
  end
  begin
    id 2
    name RightUpLeg
    direction -0.0736652 -0.994202 0.0783343
    length 17.4976
    axis -2.72909 -3.00389 -4.00133 xyz
    dof rx ry rz
  end
  begin
    id 3
    name RightLeg
    direction -0.0389037 -0.994596 -0.0962598
    length 16.5821
    axis 3.95836 -18.5909 -4.46993 xyz
    dof rx ry rz
  end
  begin
    id 4
    name RightFoot
    direction -0.311643 -0.412678 0.855906
    length 3.77069
    axis -1.99483 -18.8351 -3.27644 xyz
    dof rx ry rz
  end
  begin
    id 5
    name RightToes
    direction -0.317852 0.0389852 0.947339
    length 3.85082
    axis -2.00228 -18.1713 -3.25211 xyz
    dof rx ry rz
  end
  begin
    id 6
    name SpineDummy
    direction 8.3039e-015 1 4.44677e-016
    length 4.6813
    axis 0 0 0 xyz
  end
  begin
    id 7
    name Spine
    direction -0.000262373 0.999988 0.00493267
    length 10.1015
    axis -0.00246081 0.00062579 0.0150362 xyz
    dof rx ry rz
  end
  begin
    id 8
    name Spine1
    direction 0 0 0
    length 0
    axis -0.00349562 0.000650293 0.0196666 xyz
    dof rx ry rz
  end
  begin
    id 9
    name HEadDummy
    direction -0.000343232 0.999999 0.00123745
    length 3.43865
    axis -0.00349562 0.000650293 0.0196666 xyz
  end
  begin
    id 10
    name HEad
    direction -0.0461221 0.980933 0.188796
    length 5.12695
    axis -0.00351404 -7.04812 0.0199272 xyz
    dof rx ry rz
  end
  begin
    id 11
    name LeftShoulder1Dummy
    direction 0.998904 -0.0399089 -0.0244534
    length 3.5433
    axis -0.00349562 0.000650293 0.0196666 xyz
  end
  begin
    id 12
    name LeftShoulder1
    direction 0.99951 1.64443e-005 0.0312999
    length 4.05031
    axis -0.00349562 0.000650293 0.0196666 xyz
    dof rx ry rz
  end
  begin
    id 13
    name LeftArm
    direction 0.984791 0.0515299 0.165927
    length 12.9126
    axis -64.823 -10.7743 5.20463 xyz
    dof rx ry rz
  end
  begin
    id 14
    name LeftForeArm
    direction 0.984968 0.0534808 0.16425
    length 10.8596
    axis -30.0462 -7.70601 1.87451 xyz
    dof rx ry rz
  end
  begin
    id 15
    name LeftHand
    direction 0.975871 0.0289682 0.216418
    length 6.62295
    axis -20.1348 -6.98077 1.86072 xyz
    dof rx ry rz
  end
  begin
    id 16
    name RightShoulderDummy
    direction -0.998877 -0.0405946 -0.0244307
    length 3.5433
    axis -0.00349562 0.000650293 0.0196666 xyz
  end
  begin
    id 17
    name RightShoulder
    direction -0.998933 -0.0249743 -0.0388558
    length 4.05031
    axis -0.0205316 -4.02113 1.41395 xyz
    dof rx ry rz
  end
  begin
    id 18
    name RightArm
    direction -0.997559 0.068664 0.0127103
    length 12.9638
    axis -67.3882 1.84188 -6.15987 xyz
    dof rx ry rz
  end
  begin
    id 19
    name RightForeArm
    direction -0.991508 0.0912848 0.0926241
    length 10.8312
    axis -22.1975 3.41087 -4.28711 xyz
    dof rx ry rz
  end
  begin
    id 20
    name RightHand
    direction -0.989262 0.0600788 0.133232
    length 6.57864
    axis -12.2911 2.17515 -4.39675 xyz
    dof rx ry rz
  end
  begin
    id 21
    name LeftUpLegDummy
    direction 0.718183 -0.695806 0.00816078
    length 4.904
    axis 0 0 0 xyz
  end
  begin
    id 22
    name LeftUpLeg
    direction 0.0831398 -0.99469 0.0606531
    length 17.4976
    axis -1.71016 2.29552 4.63832 xyz
    dof rx ry rz
  end
  begin
    id 23
    name LeftLeg
    direction 0.0498442 -0.991778 -0.117862
    length 16.5821
    axis 5.13757 15.5727 5.13348 xyz
    dof rx ry rz
  end
  begin
    id 24
    name LeftFoot
    direction 0.269026 -0.433896 0.85986
    length 3.77069
    axis -0.576502 15.6961 4.10267 xyz
    dof rx ry rz
  end
  begin
    id 25
    name LeftToes
    direction 0.277311 0.0251143 0.960452
    length 3.85048
    axis -0.576502 15.6961 4.10267 xyz
    dof rx ry rz
  end
:hierarchy
  begin
    root RightUpLegDummy SpineDummy LeftUpLegDummy
    RightUpLegDummy RightUpLeg
    RightUpLeg RightLeg
    RightLeg RightFoot
    RightFoot RightToes
    SpineDummy Spine
    Spine Spine1
    Spine1 HEadDummy LeftShoulder1Dummy RightShoulderDummy
    HEadDummy HEad
    LeftShoulder1Dummy LeftShoulder1
    LeftShoulder1 LeftArm
    LeftArm LeftForeArm
    LeftForeArm LeftHand
    RightShoulderDummy RightShoulder
    RightShoulder RightArm
    RightArm RightForeArm
    RightForeArm RightHand
    LeftUpLegDummy LeftUpLeg
    LeftUpLeg LeftLeg
    LeftLeg LeftFoot
    LeftFoot LeftToes
  end

:SAMPLES-PER-SECOND 30
:FULLY-SPECIFIED
:DEGREES
143
root  -0.335954 25.4856 44.6192 -156.207 12.5051 -175.267
RightUpLeg  -84.7976 4.15262 9.63106
RightLeg  94.7102 17.05 -9.25408
RightFoot  -34.6232 0.117403 -0.00465476
RightToes  3.97569e-016 -3.18055e-015 -2.98177e-016
Spine  35.7837 -1.104 8.97405
Spine1  6.88528 1.21215 -4.2007
HEad  -37.4185 8.27086 -3.27534
LeftShoulder1  -3.88251e-019 9.70628e-020 -3.87848e-018
LeftArm  100.388 81.1733 60.701
LeftForeArm  24.4422 -2.14412 -3.16586
LeftHand  0.412509 -3.00831 -5.75307
RightShoulder  8.21883 10.9925 37.9129
RightArm  35.2771 -55.48 -46.7598
RightForeArm  2.41136 -3.14528 -5.79064
RightHand  -0.100277 -4.71655 -13.5602
LeftUpLeg  -82.1927 3.66376 -2.46322
LeftLeg  96.6866 -17.1027 19.2992
LeftFoot  -40.3434 -1.63262 -6.27237
LeftToes  4.86531e-011 4.41684e-011 -2.86034e-011
144
root  -0.325234 24.8999 44.2257 -155.375 12.5068 -175.074
RightUpLeg  -86.2475 4.8671 9.32584
RightLeg  96.9796 17.5685 -10.1614
RightFoot  -36.5498 0.38064 1.23505
RightToes  3.97569e-016 -3.18055e-015 -2.98177e-016
Spine  38.3722 -1.12608 9.43638
Spine1  3.76973 1.52846 -4.46546
HEad  -37.8757 7.86191 -3.23883
LeftShoulder1  -3.88251e-019 9.70628e-020 -3.87848e-018
LeftArm  26.9421 81.484 -12.5242
LeftForeArm  26.935 -0.673435 -2.35055
LeftHand  0.350646 -3.82014 -4.68425
RightShoulder  7.87827 10.8952 36.4693
RightArm  21.3915 -55.0445 -26.8189
RightForeArm  6.97717 -4.50514 -5.85599
RightHand  -0.0498149 -5.09465 -12.2701
LeftUpLeg  -83.4226 3.19709 -2.38491
LeftLeg  98.8057 -18.1169 20.3339
LeftFoot  -42.1794 -1.99119 -7.22054
LeftToes  4.86531e-011 4.41684e-011 -2.86034e-011
145
root  -0.299713 24.6781 43.744 -154.502 12.1866 -174.846
RightUpLeg  -86.5431 5.25896 9.1306
RightLeg  97.9004 17.903 -10.9851
RightFoot  -38.2321 0.693194 2.53692
RightToes  3.97569e-016 -3.18055e-015 -2.98177e-016
Spine  39.6688 -1.21739 9.97265
Spine1  1.42298 1.62183 -4.53601
HEad  -37.8829 7.93345 -3.07082
LeftShoulder1  -3.88251e-019 9.70628e-020 -3.87848e-018
LeftArm  -8.20232 70.7456 -47.8609
LeftForeArm  29.6663 -0.658733 -1.33827
LeftHand  -0.0874352 -5.38142 1.37847
RightShoulder  7.73175 10.8508 35.8435
RightArm  7.6522 -48.7885 -4.73736
RightForeArm  14.4783 -5.10153 -4.9026
RightHand  -0.22076 -3.28057 -11.232
LeftUpLeg  -83.6565 2.36069 -2.09978
LeftLeg  99.4566 -18.7437 21.6018
LeftFoot  -43.47 -2.3176 -8.08606
LeftToes  4.86531e-011 4.41684e-011 -2.86034e-011
146
root  -0.26017 24.775 43.1584 -153.465 11.7413 -174.974
RightUpLeg  -86.1719 5.18663 8.70294
RightLeg  97.7778 18.0168 -11.6006
RightFoot  -39.3157 0.90525 3.32425
RightToes  3.97569e-016 -3.18055e-015 -2.98177e-016
Spine  39.5579 -1.15797 10.0897
Spine1  -0.170943 1.53498 -4.09896
HEad  -37.8955 8.20745 -3.16745
LeftShoulder1  -3.88251e-019 9.70628e-020 -3.87848e-018
LeftArm  -16.7799 56.1443 -57.7001
LeftForeArm  29.1759 -0.650384 -1.35025
LeftHand  -0.447733 -3.53145 6.36456
RightShoulder  7.833 10.8861 36.2666
RightArm  0.0682216 -35.904 12.5789
RightForeArm  21.0037 -4.40391 -3.28945
RightHand  -0.607634 0.0956148 -12.4465
LeftUpLeg  -83.1321 1.30244 -2.15594
LeftLeg  98.7295 -18.9304 23.1353
LeftFoot  -44.2108 -2.54709 -8.69568
LeftToes  4.86531e-011 4.41684e-011 -2.86034e-011
147
root  -0.217207 25.1603 42.5153 -152.744 11.2362 -175.292
RightUpLeg  -84.6134 4.56733 8.42266
RightLeg  96.7858 17.8566 -11.7438
RightFoot  -40.2519 1.01918 3.66099
RightToes  3.97569e-016 -3.18055e-015 -2.98177e-016
Spine  39.2907 -1.07245 9.99663
Spine1  -1.73682 1.40855 -3.33335
HEad  -38.4385 8.29253 -3.7061
LeftShoulder1  -3.88251e-019 9.70628e-020 -3.87848e-018
LeftArm  -19.2787 39.99 -61.7211
LeftForeArm  23.5441 -0.597038 -2.26444
LeftHand  -0.50365 -1.72636 8.8049
RightShoulder  7.81346 10.885 36.1742
RightArm  -2.75642 -20.1147 26.0769
RightForeArm  21.5819 -2.03314 -2.45073
RightHand  -1.02209 1.92887 -15.9288
LeftUpLeg  -81.4696 0.292145 -2.43645
LeftLeg  96.9642 -18.6015 24.5604
LeftFoot  -44.8208 -2.7446 -9.20455
LeftToes  4.86531e-011 4.41684e-011 -2.86034e-011
148
root  -0.192003 25.8138 41.8787 -152.501 10.5786 -175.327
RightUpLeg  -81.6936 3.56031 8.71059
RightLeg  94.7787 17.412 -11.4032
RightFoot  -41.219 1.14297 4.01139
RightToes  3.97569e-016 -3.18055e-015 -2.98177e-016
Spine  39.4634 -1.18858 10.5767
Spine1  -3.5459 1.395 -2.9624
HEad  -39.5143 7.86825 -4.12531
LeftShoulder1  -3.88251e-019 9.70628e-020 -3.87848e-018
LeftArm  -19.9549 22.9785 -63.9136
LeftForeArm  13.289 -1.59234 -3.1602
LeftHand  -0.555591 -2.12982 9.22093
RightShoulder  7.27537 10.7308 33.8156
RightArm  -2.95588 -5.06128 38.5976
RightForeArm  14.5615 2.06273 -2.60044
RightHand  -1.41073 2.69538 -19.899
LeftUpLeg  -78.7171 -0.580863 -2.3702
LeftLeg  94.3789 -17.6916 25.4918
LeftFoot  -45.2909 -2.9309 -9.70097
LeftToes  4.86531e-011 4.41684e-011 -2.86034e-011
